<mxfile host="app.diagrams.net" modified="2023-05-01T21:53:45.625Z" agent="Mozilla/5.0 (Windows NT 10.0; Win64; x64; rv:109.0) Gecko/20100101 Firefox/112.0" etag="2vRHIgislfNWk6KUvzfM" version="21.2.3" type="github" pages="2">
  <diagram name="Pasado" id="5987fedf-629e-85c4-6858-42fee31821dd">
    <mxGraphModel dx="2200" dy="1085" grid="1" gridSize="10" guides="1" tooltips="1" connect="1" arrows="1" fold="1" page="1" pageScale="1.5" pageWidth="1169" pageHeight="826" background="#ffffff" math="0" shadow="0">
      <root>
        <mxCell id="0" style=";html=1;" />
        <mxCell id="1" style=";html=1;" parent="0" />
        <mxCell id="YfqoGUxCrP-vsWwG5_EB-134" value="&lt;div align=&quot;left&quot;&gt;&lt;font style=&quot;font-size: 30px;&quot;&gt;Escenario en el Pasado&lt;/font&gt;&lt;br&gt;&lt;/div&gt;" style="text;strokeColor=none;fillColor=none;html=1;fontSize=24;fontStyle=1;verticalAlign=middle;align=center;container=0;" vertex="1" parent="1">
          <mxGeometry x="40" y="20" width="430" height="90" as="geometry" />
        </mxCell>
        <mxCell id="YfqoGUxCrP-vsWwG5_EB-34" value="&lt;div align=&quot;left&quot;&gt;&lt;font style=&quot;font-size: 20px;&quot;&gt;- Obstrucción a la expresión&lt;/font&gt;&lt;/div&gt;&lt;div align=&quot;left&quot;&gt;&lt;font style=&quot;font-size: 20px;&quot;&gt;- Amenaza&lt;/font&gt;&lt;/div&gt;&lt;div align=&quot;left&quot;&gt;&lt;font style=&quot;font-size: 20px;&quot;&gt;- Negación de derechos&lt;br&gt;&lt;/font&gt;&lt;/div&gt;" style="text;strokeColor=none;align=left;fillColor=none;html=1;verticalAlign=middle;whiteSpace=wrap;rounded=0;fontSize=12;fontFamily=Helvetica;fontColor=default;movable=1;resizable=1;rotatable=1;deletable=1;editable=1;locked=0;connectable=1;container=0;" vertex="1" parent="1">
          <mxGeometry x="180" y="204.53781512605042" width="270" height="105.3781512605042" as="geometry" />
        </mxCell>
        <mxCell id="YfqoGUxCrP-vsWwG5_EB-36" value="&lt;font style=&quot;font-size: 20px;&quot;&gt;- Anulación del reconocimiento&lt;/font&gt;&lt;div align=&quot;left&quot;&gt;&lt;font style=&quot;font-size: 20px;&quot;&gt;- Desigualdad&lt;/font&gt;&lt;/div&gt;&lt;div align=&quot;left&quot;&gt;&lt;font style=&quot;font-size: 20px;&quot;&gt;- Intolerancia&lt;br&gt;&lt;/font&gt;&lt;/div&gt;" style="text;strokeColor=none;align=left;fillColor=none;html=1;verticalAlign=middle;whiteSpace=wrap;rounded=0;fontSize=12;fontFamily=Helvetica;fontColor=default;movable=1;resizable=1;rotatable=1;deletable=1;editable=1;locked=0;connectable=1;container=0;" vertex="1" parent="1">
          <mxGeometry x="730" y="74" width="280" height="105.3781512605042" as="geometry" />
        </mxCell>
        <mxCell id="YfqoGUxCrP-vsWwG5_EB-37" value="&lt;div align=&quot;left&quot;&gt;&lt;font style=&quot;font-size: 20px;&quot;&gt;- Ejercicios de fuerza&lt;/font&gt;&lt;/div&gt;&lt;div align=&quot;left&quot;&gt;&lt;font style=&quot;font-size: 20px;&quot;&gt;- Actos de corrupción&lt;br&gt;&lt;/font&gt;&lt;/div&gt;" style="text;strokeColor=none;align=left;fillColor=none;html=1;verticalAlign=middle;whiteSpace=wrap;rounded=0;fontSize=12;fontFamily=Helvetica;fontColor=default;movable=1;resizable=1;rotatable=1;deletable=1;editable=1;locked=0;connectable=1;container=0;" vertex="1" parent="1">
          <mxGeometry x="1203" y="154.05882352941177" width="270" height="105.3781512605042" as="geometry" />
        </mxCell>
        <mxCell id="YfqoGUxCrP-vsWwG5_EB-39" value="&lt;div align=&quot;left&quot;&gt;&lt;font style=&quot;font-size: 20px;&quot;&gt;- Difamación&lt;br&gt;&lt;/font&gt;&lt;/div&gt;" style="text;strokeColor=none;align=left;fillColor=none;html=1;verticalAlign=middle;whiteSpace=wrap;rounded=0;fontSize=12;fontFamily=Helvetica;fontColor=default;movable=1;resizable=1;rotatable=1;deletable=1;editable=1;locked=0;connectable=1;container=0;" vertex="1" parent="1">
          <mxGeometry x="1433.7" y="721.8487394957983" width="150" height="105.3781512605042" as="geometry" />
        </mxCell>
        <mxCell id="YfqoGUxCrP-vsWwG5_EB-40" value="&lt;div align=&quot;left&quot;&gt;&lt;font style=&quot;font-size: 20px;&quot;&gt;- Espionaje&lt;/font&gt;&lt;/div&gt;&lt;div align=&quot;left&quot;&gt;&lt;font style=&quot;font-size: 20px;&quot;&gt;- Homicidios&lt;br&gt;&lt;/font&gt;&lt;/div&gt;" style="text;strokeColor=none;align=left;fillColor=none;html=1;verticalAlign=middle;whiteSpace=wrap;rounded=0;fontSize=12;fontFamily=Helvetica;fontColor=default;movable=1;resizable=1;rotatable=1;deletable=1;editable=1;locked=0;connectable=1;container=0;" vertex="1" parent="1">
          <mxGeometry x="1285" y="970.924369747899" width="140" height="105.3781512605042" as="geometry" />
        </mxCell>
        <mxCell id="YfqoGUxCrP-vsWwG5_EB-41" value="&lt;div align=&quot;left&quot;&gt;&lt;font style=&quot;font-size: 20px;&quot;&gt;- Ataques no planificados&lt;br&gt;&lt;/font&gt;&lt;/div&gt;" style="text;strokeColor=none;align=left;fillColor=none;html=1;verticalAlign=middle;whiteSpace=wrap;rounded=0;fontSize=12;fontFamily=Helvetica;fontColor=default;movable=1;resizable=1;rotatable=1;deletable=1;editable=1;locked=0;connectable=1;container=0;" vertex="1" parent="1">
          <mxGeometry x="944" y="1114.6218487394958" width="230" height="105.3781512605042" as="geometry" />
        </mxCell>
        <mxCell id="YfqoGUxCrP-vsWwG5_EB-42" value="&lt;div align=&quot;left&quot;&gt;&lt;font style=&quot;font-size: 20px;&quot;&gt;- Ataques sistematizados&lt;br&gt;&lt;/font&gt;&lt;/div&gt;" style="text;strokeColor=none;align=left;fillColor=none;html=1;verticalAlign=middle;whiteSpace=wrap;rounded=0;fontSize=12;fontFamily=Helvetica;fontColor=default;movable=1;resizable=1;rotatable=1;deletable=1;editable=1;locked=0;connectable=1;container=0;" vertex="1" parent="1">
          <mxGeometry x="578" y="1112.0420168067228" width="240" height="105.3781512605042" as="geometry" />
        </mxCell>
        <mxCell id="YfqoGUxCrP-vsWwG5_EB-43" value="&lt;div align=&quot;left&quot;&gt;&lt;font style=&quot;font-size: 20px;&quot;&gt;- Abuso de recursos e influencias (recursos mediáticos, sociales, militares, paramilitares, económicos y legales).&lt;br&gt;&lt;/font&gt;&lt;/div&gt;" style="text;strokeColor=none;align=left;fillColor=none;html=1;verticalAlign=middle;whiteSpace=wrap;rounded=0;fontSize=12;fontFamily=Helvetica;fontColor=default;movable=1;resizable=1;rotatable=1;deletable=1;editable=1;locked=0;connectable=1;container=0;" vertex="1" parent="1">
          <mxGeometry x="170" y="970.924369747899" width="230" height="105.3781512605042" as="geometry" />
        </mxCell>
        <mxCell id="YfqoGUxCrP-vsWwG5_EB-53" value="&lt;font style=&quot;font-size: 27px;&quot;&gt;Violencia&lt;/font&gt;" style="swimlane;whiteSpace=wrap;html=1;strokeColor=#d79b00;fontFamily=Helvetica;fontSize=12;fillColor=#ffe6cc;startSize=40;swimlaneFillColor=none;strokeWidth=3;movable=1;resizable=1;rotatable=1;deletable=1;editable=1;locked=0;connectable=1;container=0;" vertex="1" parent="1">
          <mxGeometry x="40" y="544.6221008403361" width="240" height="210.7563025210084" as="geometry" />
        </mxCell>
        <mxCell id="YfqoGUxCrP-vsWwG5_EB-38" value="&lt;div align=&quot;left&quot;&gt;&lt;font style=&quot;font-size: 20px;&quot;&gt;- Manipulación&lt;/font&gt;&lt;/div&gt;&lt;div align=&quot;left&quot;&gt;&lt;font style=&quot;font-size: 20px;&quot;&gt;- Provocación&lt;br&gt;&lt;/font&gt;&lt;/div&gt;" style="text;strokeColor=none;align=left;fillColor=none;html=1;verticalAlign=middle;whiteSpace=wrap;rounded=0;fontSize=12;fontFamily=Helvetica;fontColor=default;movable=1;resizable=1;rotatable=1;deletable=1;editable=1;locked=0;connectable=1;container=0;" vertex="1" parent="1">
          <mxGeometry x="1423" y="396.13445378151255" width="160" height="105.3781512605042" as="geometry" />
        </mxCell>
        <mxCell id="YfqoGUxCrP-vsWwG5_EB-46" value="" style="triangle;whiteSpace=wrap;html=1;rotation=-270;fillColor=#a0522d;fontColor=#ffffff;strokeColor=#6D1F00;movable=1;resizable=1;rotatable=1;deletable=1;editable=1;locked=0;connectable=1;container=0;" vertex="1" parent="1">
          <mxGeometry x="629.35" y="279.09" width="274.9" height="59.03" as="geometry" />
        </mxCell>
        <mxCell id="YfqoGUxCrP-vsWwG5_EB-48" value="" style="triangle;whiteSpace=wrap;html=1;rotation=-270;fillColor=#0050ef;fontColor=#ffffff;strokeColor=#001DBC;movable=1;resizable=1;rotatable=1;deletable=1;editable=1;locked=0;connectable=1;container=0;" vertex="1" parent="1">
          <mxGeometry x="673.09" y="278.17" width="274.9" height="60.86" as="geometry" />
        </mxCell>
        <mxCell id="YfqoGUxCrP-vsWwG5_EB-54" value="&lt;ul style=&quot;font-size: 28px;&quot;&gt;&lt;li&gt;&lt;b&gt;&lt;font style=&quot;font-size: 28px;&quot; color=&quot;#974b00&quot;&gt;Política&lt;/font&gt;&lt;/b&gt;&lt;/li&gt;&lt;li&gt;&lt;b&gt;&lt;font style=&quot;font-size: 28px;&quot; color=&quot;#008000&quot;&gt;Militar&lt;/font&gt;&lt;/b&gt;&lt;/li&gt;&lt;li&gt;&lt;font color=&quot;#a6043d&quot;&gt;&lt;b&gt;&lt;font style=&quot;font-size: 28px;&quot;&gt;Social&lt;/font&gt;&lt;/b&gt;&lt;/font&gt;&lt;/li&gt;&lt;li&gt;&lt;b&gt;&lt;font style=&quot;font-size: 28px;&quot; color=&quot;#0f0fff&quot;&gt;Psicológica&lt;br&gt;&lt;/font&gt;&lt;/b&gt;&lt;/li&gt;&lt;/ul&gt;" style="text;strokeColor=none;align=left;fillColor=none;html=1;verticalAlign=middle;whiteSpace=wrap;rounded=0;fontSize=12;fontFamily=Helvetica;fontColor=default;movable=1;resizable=1;rotatable=1;deletable=1;editable=1;locked=0;connectable=1;container=0;" vertex="1" parent="1">
          <mxGeometry x="42" y="603.0590756302521" width="230" height="114.95798319327731" as="geometry" />
        </mxCell>
        <mxCell id="YfqoGUxCrP-vsWwG5_EB-72" value="" style="triangle;whiteSpace=wrap;html=1;rotation=-525;fillColor=#a0522d;fontColor=#ffffff;strokeColor=#6D1F00;movable=1;resizable=1;rotatable=1;deletable=1;editable=1;locked=0;connectable=1;container=0;" vertex="1" parent="1">
          <mxGeometry x="1125.11" y="677.17" width="302.87" height="49.23" as="geometry" />
        </mxCell>
        <mxCell id="YfqoGUxCrP-vsWwG5_EB-74" value="" style="triangle;whiteSpace=wrap;html=1;rotation=-525;fillColor=#0050ef;fontColor=#ffffff;strokeColor=#001DBC;movable=1;resizable=1;rotatable=1;deletable=1;editable=1;locked=0;connectable=1;container=0;" vertex="1" parent="1">
          <mxGeometry x="1115.51" y="723.7" width="302.87" height="28.98" as="geometry" />
        </mxCell>
        <mxCell id="YfqoGUxCrP-vsWwG5_EB-88" value="" style="triangle;whiteSpace=wrap;html=1;rotation=-75;fillColor=#008a00;fontColor=#ffffff;strokeColor=#005700;movable=1;resizable=1;rotatable=1;deletable=1;editable=1;locked=0;connectable=1;container=0;" vertex="1" parent="1">
          <mxGeometry x="599.3" y="954.21" width="302.87" height="54.82" as="geometry" />
        </mxCell>
        <mxCell id="YfqoGUxCrP-vsWwG5_EB-90" value="" style="triangle;whiteSpace=wrap;html=1;rotation=-45;fillColor=#a0522d;fontColor=#ffffff;strokeColor=#6D1F00;movable=1;resizable=1;rotatable=1;deletable=1;editable=1;locked=0;connectable=1;container=0;" vertex="1" parent="1">
          <mxGeometry x="366.8" y="845.27" width="311.88" height="48.18" as="geometry" />
        </mxCell>
        <mxCell id="YfqoGUxCrP-vsWwG5_EB-91" value="" style="triangle;whiteSpace=wrap;html=1;rotation=-45;fillColor=#a20025;fontColor=#ffffff;strokeColor=#6F0000;movable=1;resizable=1;rotatable=1;deletable=1;editable=1;locked=0;connectable=1;container=0;" vertex="1" parent="1">
          <mxGeometry x="327.05" y="801.72" width="311.66" height="58.19" as="geometry" />
        </mxCell>
        <mxCell id="YfqoGUxCrP-vsWwG5_EB-126" value="" style="triangle;whiteSpace=wrap;html=1;rotation=-135;fillColor=#a0522d;fontColor=#ffffff;strokeColor=#6D1F00;movable=1;resizable=1;rotatable=1;deletable=1;editable=1;locked=0;connectable=1;container=0;" vertex="1" parent="1">
          <mxGeometry x="1029.28" y="838.47" width="302.87" height="50.2" as="geometry" />
        </mxCell>
        <mxCell id="YfqoGUxCrP-vsWwG5_EB-128" value="" style="triangle;whiteSpace=wrap;html=1;rotation=-135;fillColor=#008040;fontColor=#ffffff;strokeColor=#001DBC;movable=1;resizable=1;rotatable=1;deletable=1;editable=1;locked=0;connectable=1;container=0;" vertex="1" parent="1">
          <mxGeometry x="997.42" y="874.55" width="302.87" height="42.26" as="geometry" />
        </mxCell>
        <mxCell id="YfqoGUxCrP-vsWwG5_EB-68" value="" style="triangle;whiteSpace=wrap;html=1;rotation=-105;fillColor=#a20025;fontColor=#ffffff;strokeColor=#6F0000;movable=1;resizable=1;rotatable=1;deletable=1;editable=1;locked=0;connectable=1;container=0;" vertex="1" parent="1">
          <mxGeometry x="795.72" y="966.36" width="308.14" height="39.25" as="geometry" />
        </mxCell>
        <mxCell id="YfqoGUxCrP-vsWwG5_EB-69" value="" style="triangle;whiteSpace=wrap;html=1;rotation=-105;fillColor=#0050ef;fontColor=#ffffff;strokeColor=#001DBC;movable=1;resizable=1;rotatable=1;deletable=1;editable=1;locked=0;connectable=1;container=0;" vertex="1" parent="1">
          <mxGeometry x="849.42" y="942.8" width="302.87" height="62.43" as="geometry" />
        </mxCell>
        <mxCell id="YfqoGUxCrP-vsWwG5_EB-116" value="" style="triangle;whiteSpace=wrap;html=1;rotation=-200;fillColor=#a0522d;fontColor=#ffffff;strokeColor=#6D1F00;movable=1;resizable=1;rotatable=1;deletable=1;editable=1;locked=0;connectable=1;container=0;" vertex="1" parent="1">
          <mxGeometry x="1104.72" y="470.41" width="309.17" height="38.65" as="geometry" />
        </mxCell>
        <mxCell id="YfqoGUxCrP-vsWwG5_EB-118" value="" style="triangle;whiteSpace=wrap;html=1;rotation=-200;fillColor=#0050ef;fontColor=#ffffff;strokeColor=#001DBC;movable=1;resizable=1;rotatable=1;deletable=1;editable=1;locked=0;connectable=1;container=0;" vertex="1" parent="1">
          <mxGeometry x="1121.56" y="504.08000000000004" width="302.87" height="29.96" as="geometry" />
        </mxCell>
        <mxCell id="YfqoGUxCrP-vsWwG5_EB-119" value="" style="triangle;whiteSpace=wrap;html=1;rotation=-200;fillColor=#008a00;fontColor=#ffffff;strokeColor=#005700;movable=1;resizable=1;rotatable=1;deletable=1;editable=1;locked=0;connectable=1;container=0;" vertex="1" parent="1">
          <mxGeometry x="1125.94" y="528.99" width="312.87" height="55.11" as="geometry" />
        </mxCell>
        <mxCell id="YfqoGUxCrP-vsWwG5_EB-135" value="" style="group" vertex="1" connectable="0" parent="1">
          <mxGeometry x="577" y="434.453781512605" width="560" height="402.3529411764706" as="geometry" />
        </mxCell>
        <mxCell id="YfqoGUxCrP-vsWwG5_EB-9" value="" style="ellipse;whiteSpace=wrap;html=1;fillColor=#f8cecc;strokeColor=#b85450;gradientColor=#fb5e6d;movable=1;resizable=1;rotatable=1;deletable=1;editable=1;locked=0;connectable=1;container=0;" vertex="1" parent="YfqoGUxCrP-vsWwG5_EB-135">
          <mxGeometry width="560" height="402.3529411764706" as="geometry" />
        </mxCell>
        <mxCell id="2a5a01dd2e413fbf-3" value="" style="ellipse;whiteSpace=wrap;rounded=0;shadow=0;strokeWidth=1;fillColor=#ffd964;fontSize=24;align=center;strokeColor=#d6b656;opacity=50;fillStyle=auto;html=1;gradientColor=#888f01;gradientDirection=north;movable=1;resizable=1;rotatable=1;deletable=1;editable=1;locked=0;connectable=1;container=0;" parent="YfqoGUxCrP-vsWwG5_EB-135" vertex="1">
          <mxGeometry x="155" y="119.74789915966392" width="250" height="162.8571428571428" as="geometry" />
        </mxCell>
        <mxCell id="YfqoGUxCrP-vsWwG5_EB-5" value="&lt;font style=&quot;font-size: 22px;&quot;&gt;VIOLENCIA&lt;/font&gt;" style="text;strokeColor=none;align=center;fillColor=none;html=1;verticalAlign=middle;whiteSpace=wrap;rounded=0;fontSize=35;fontStyle=1;movable=1;resizable=1;rotatable=1;deletable=1;editable=1;locked=0;connectable=1;container=0;" vertex="1" parent="YfqoGUxCrP-vsWwG5_EB-135">
          <mxGeometry x="205" y="134.11764705882354" width="150" height="114.95798319327727" as="geometry" />
        </mxCell>
        <mxCell id="YfqoGUxCrP-vsWwG5_EB-13" value="&lt;font style=&quot;font-size: 20px;&quot;&gt;Género&lt;/font&gt;" style="text;strokeColor=none;align=center;fillColor=none;html=1;verticalAlign=middle;whiteSpace=wrap;rounded=0;fontStyle=1;movable=1;resizable=1;rotatable=1;deletable=1;editable=1;locked=0;connectable=1;container=0;" vertex="1" parent="YfqoGUxCrP-vsWwG5_EB-135">
          <mxGeometry x="250" y="47.89915966386559" width="60" height="28.739495798319318" as="geometry" />
        </mxCell>
        <mxCell id="YfqoGUxCrP-vsWwG5_EB-20" value="&lt;font style=&quot;font-size: 20px;&quot;&gt;Racialidad&lt;/font&gt;" style="text;strokeColor=none;align=center;fillColor=none;html=1;verticalAlign=middle;whiteSpace=wrap;rounded=0;fontStyle=1;movable=1;resizable=1;rotatable=1;deletable=1;editable=1;locked=0;connectable=1;container=0;" vertex="1" parent="YfqoGUxCrP-vsWwG5_EB-135">
          <mxGeometry x="250" y="325.7142857142858" width="60" height="28.739495798319318" as="geometry" />
        </mxCell>
        <mxCell id="YfqoGUxCrP-vsWwG5_EB-21" value="&lt;font style=&quot;font-size: 20px;&quot;&gt;Neuro-desarrollo&lt;/font&gt;" style="text;strokeColor=none;align=center;fillColor=none;html=1;verticalAlign=middle;whiteSpace=wrap;rounded=0;fontStyle=1;movable=1;resizable=1;rotatable=1;deletable=1;editable=1;locked=0;connectable=1;container=0;" vertex="1" parent="YfqoGUxCrP-vsWwG5_EB-135">
          <mxGeometry x="463" y="182.01680672268913" width="60" height="28.739495798319318" as="geometry" />
        </mxCell>
        <mxCell id="YfqoGUxCrP-vsWwG5_EB-22" value="&lt;font style=&quot;font-size: 20px;&quot;&gt;Grupo&lt;br&gt;socio-económicc&lt;br&gt;&lt;/font&gt;" style="text;strokeColor=none;align=center;fillColor=none;html=1;verticalAlign=middle;whiteSpace=wrap;rounded=0;fontStyle=1;movable=1;resizable=1;rotatable=1;deletable=1;editable=1;locked=0;connectable=1;container=0;" vertex="1" parent="YfqoGUxCrP-vsWwG5_EB-135">
          <mxGeometry x="63" y="162.8571428571429" width="60" height="67.05882352941175" as="geometry" />
        </mxCell>
        <mxCell id="YfqoGUxCrP-vsWwG5_EB-77" value="" style="triangle;whiteSpace=wrap;html=1;rotation=45;fillColor=#a0522d;fontColor=#ffffff;strokeColor=#6D1F00;movable=1;resizable=1;rotatable=1;deletable=1;editable=1;locked=0;connectable=1;container=0;" vertex="1" parent="1">
          <mxGeometry x="339.56" y="423.88" width="302.87" height="58.25" as="geometry" />
        </mxCell>
        <mxCell id="YfqoGUxCrP-vsWwG5_EB-79" value="" style="triangle;whiteSpace=wrap;html=1;rotation=45;fillColor=#0050ef;fontColor=#ffffff;strokeColor=#001DBC;movable=1;resizable=1;rotatable=1;deletable=1;editable=1;locked=0;connectable=1;container=0;" vertex="1" parent="1">
          <mxGeometry x="369.08" y="392.94" width="302.87" height="61.72" as="geometry" />
        </mxCell>
        <mxCell id="YfqoGUxCrP-vsWwG5_EB-78" value="" style="triangle;whiteSpace=wrap;html=1;rotation=45;fillColor=#a20025;fontColor=#ffffff;strokeColor=#6F0000;movable=1;resizable=1;rotatable=1;deletable=1;editable=1;locked=0;connectable=1;container=0;" vertex="1" parent="1">
          <mxGeometry x="391.51" y="375.33" width="299.05" height="50.57" as="geometry" />
        </mxCell>
        <mxCell id="YfqoGUxCrP-vsWwG5_EB-80" value="" style="triangle;whiteSpace=wrap;html=1;rotation=45;fillColor=#008a00;fontColor=#ffffff;strokeColor=#005700;movable=1;resizable=1;rotatable=1;deletable=1;editable=1;locked=0;connectable=1;container=0;" vertex="1" parent="1">
          <mxGeometry x="415.74" y="347.46" width="302.87" height="57.88" as="geometry" />
        </mxCell>
        <mxCell id="YfqoGUxCrP-vsWwG5_EB-47" value="" style="triangle;whiteSpace=wrap;html=1;rotation=-270;fillColor=#a20025;fontColor=#ffffff;strokeColor=#6F0000;movable=1;resizable=1;rotatable=1;deletable=1;editable=1;locked=0;connectable=1;container=0;" vertex="1" parent="1">
          <mxGeometry x="722.5" y="274.83" width="268" height="59.27" as="geometry" />
        </mxCell>
        <mxCell id="YfqoGUxCrP-vsWwG5_EB-57" value="" style="triangle;whiteSpace=wrap;html=1;rotation=-230;fillColor=#a20025;fontColor=#ffffff;strokeColor=#6F0000;movable=1;resizable=1;rotatable=1;deletable=1;editable=1;locked=0;connectable=1;container=0;" vertex="1" parent="1">
          <mxGeometry x="945.64" y="323.54" width="302.87" height="50.39" as="geometry" />
        </mxCell>
        <mxCell id="YfqoGUxCrP-vsWwG5_EB-59" value="" style="triangle;whiteSpace=wrap;html=1;rotation=-230;fillColor=#008a00;fontColor=#ffffff;strokeColor=#005700;movable=1;resizable=1;rotatable=1;deletable=1;editable=1;locked=0;connectable=1;container=0;" vertex="1" parent="1">
          <mxGeometry x="979.97" y="341.28" width="295.82" height="54.42" as="geometry" />
        </mxCell>
        <mxCell id="YfqoGUxCrP-vsWwG5_EB-56" value="" style="triangle;whiteSpace=wrap;html=1;rotation=-230;fillColor=#a0522d;fontColor=#ffffff;strokeColor=#6D1F00;movable=1;resizable=1;rotatable=1;deletable=1;editable=1;locked=0;connectable=1;container=0;" vertex="1" parent="1">
          <mxGeometry x="1012.25" y="360.37" width="294.57" height="64.21" as="geometry" />
        </mxCell>
      </root>
    </mxGraphModel>
  </diagram>
  <diagram name="Presente" id="lityQQx76ibZBFoIN8F-">
    <mxGraphModel dx="1760" dy="868" grid="1" gridSize="10" guides="1" tooltips="1" connect="1" arrows="1" fold="1" page="1" pageScale="1.5" pageWidth="1169" pageHeight="826" background="#ffffff" math="0" shadow="0">
      <root>
        <mxCell id="QU9Vi9RlxVRj50U4WEez-0" style=";html=1;" />
        <mxCell id="QU9Vi9RlxVRj50U4WEez-1" style=";html=1;" parent="QU9Vi9RlxVRj50U4WEez-0" />
        <mxCell id="QU9Vi9RlxVRj50U4WEez-2" value="&lt;div align=&quot;left&quot;&gt;&lt;font style=&quot;font-size: 30px;&quot;&gt;Escenario en el Presente&lt;/font&gt;&lt;/div&gt;" style="text;strokeColor=none;fillColor=none;html=1;fontSize=24;fontStyle=1;verticalAlign=middle;align=center;container=0;" vertex="1" parent="QU9Vi9RlxVRj50U4WEez-1">
          <mxGeometry x="40" y="20" width="430" height="90" as="geometry" />
        </mxCell>
        <mxCell id="QU9Vi9RlxVRj50U4WEez-3" value="&lt;div align=&quot;left&quot;&gt;&lt;font style=&quot;font-size: 20px;&quot;&gt;- Obstrucción a la expresión&lt;/font&gt;&lt;/div&gt;&lt;div align=&quot;left&quot;&gt;&lt;font style=&quot;font-size: 20px;&quot;&gt;- Amenaza&lt;/font&gt;&lt;/div&gt;&lt;div align=&quot;left&quot;&gt;&lt;font style=&quot;font-size: 20px;&quot;&gt;- Negación de derechos&lt;br&gt;&lt;/font&gt;&lt;/div&gt;" style="text;strokeColor=none;align=left;fillColor=none;html=1;verticalAlign=middle;whiteSpace=wrap;rounded=0;fontSize=12;fontFamily=Helvetica;fontColor=default;movable=1;resizable=1;rotatable=1;deletable=1;editable=1;locked=0;connectable=1;container=0;" vertex="1" parent="QU9Vi9RlxVRj50U4WEez-1">
          <mxGeometry x="180" y="204.53781512605042" width="270" height="105.3781512605042" as="geometry" />
        </mxCell>
        <mxCell id="QU9Vi9RlxVRj50U4WEez-4" value="&lt;font style=&quot;font-size: 20px;&quot;&gt;- Anulación del reconocimiento&lt;/font&gt;&lt;div align=&quot;left&quot;&gt;&lt;font style=&quot;font-size: 20px;&quot;&gt;- Desigualdad&lt;/font&gt;&lt;/div&gt;&lt;div align=&quot;left&quot;&gt;&lt;font style=&quot;font-size: 20px;&quot;&gt;- Intolerancia&lt;br&gt;&lt;/font&gt;&lt;/div&gt;" style="text;strokeColor=none;align=left;fillColor=none;html=1;verticalAlign=middle;whiteSpace=wrap;rounded=0;fontSize=12;fontFamily=Helvetica;fontColor=default;movable=1;resizable=1;rotatable=1;deletable=1;editable=1;locked=0;connectable=1;container=0;" vertex="1" parent="QU9Vi9RlxVRj50U4WEez-1">
          <mxGeometry x="730" y="75" width="280" height="105.3781512605042" as="geometry" />
        </mxCell>
        <mxCell id="QU9Vi9RlxVRj50U4WEez-5" value="&lt;div align=&quot;left&quot;&gt;&lt;font style=&quot;font-size: 20px;&quot;&gt;- Ejercicios de fuerza&lt;/font&gt;&lt;/div&gt;&lt;div align=&quot;left&quot;&gt;&lt;font style=&quot;font-size: 20px;&quot;&gt;- Actos de corrupción&lt;br&gt;&lt;/font&gt;&lt;/div&gt;" style="text;strokeColor=none;align=left;fillColor=none;html=1;verticalAlign=middle;whiteSpace=wrap;rounded=0;fontSize=12;fontFamily=Helvetica;fontColor=default;movable=1;resizable=1;rotatable=1;deletable=1;editable=1;locked=0;connectable=1;container=0;" vertex="1" parent="QU9Vi9RlxVRj50U4WEez-1">
          <mxGeometry x="1220" y="147.05882352941177" width="270" height="105.3781512605042" as="geometry" />
        </mxCell>
        <mxCell id="QU9Vi9RlxVRj50U4WEez-6" value="&lt;div align=&quot;left&quot;&gt;&lt;font style=&quot;font-size: 20px;&quot;&gt;- Difamación&lt;br&gt;&lt;/font&gt;&lt;/div&gt;" style="text;strokeColor=none;align=left;fillColor=none;html=1;verticalAlign=middle;whiteSpace=wrap;rounded=0;fontSize=12;fontFamily=Helvetica;fontColor=default;movable=1;resizable=1;rotatable=1;deletable=1;editable=1;locked=0;connectable=1;container=0;" vertex="1" parent="QU9Vi9RlxVRj50U4WEez-1">
          <mxGeometry x="1433.7" y="721.8487394957983" width="150" height="105.3781512605042" as="geometry" />
        </mxCell>
        <mxCell id="QU9Vi9RlxVRj50U4WEez-7" value="&lt;div align=&quot;left&quot;&gt;&lt;font style=&quot;font-size: 20px;&quot;&gt;- Espionaje&lt;/font&gt;&lt;/div&gt;&lt;div align=&quot;left&quot;&gt;&lt;font style=&quot;font-size: 20px;&quot;&gt;- Homicidios&lt;br&gt;&lt;/font&gt;&lt;/div&gt;" style="text;strokeColor=none;align=left;fillColor=none;html=1;verticalAlign=middle;whiteSpace=wrap;rounded=0;fontSize=12;fontFamily=Helvetica;fontColor=default;movable=1;resizable=1;rotatable=1;deletable=1;editable=1;locked=0;connectable=1;container=0;" vertex="1" parent="QU9Vi9RlxVRj50U4WEez-1">
          <mxGeometry x="1285" y="970.924369747899" width="140" height="105.3781512605042" as="geometry" />
        </mxCell>
        <mxCell id="QU9Vi9RlxVRj50U4WEez-8" value="&lt;div align=&quot;left&quot;&gt;&lt;font style=&quot;font-size: 20px;&quot;&gt;- Ataques no planificados&lt;br&gt;&lt;/font&gt;&lt;/div&gt;" style="text;strokeColor=none;align=left;fillColor=none;html=1;verticalAlign=middle;whiteSpace=wrap;rounded=0;fontSize=12;fontFamily=Helvetica;fontColor=default;movable=1;resizable=1;rotatable=1;deletable=1;editable=1;locked=0;connectable=1;container=0;" vertex="1" parent="QU9Vi9RlxVRj50U4WEez-1">
          <mxGeometry x="910" y="1114.6218487394958" width="230" height="105.3781512605042" as="geometry" />
        </mxCell>
        <mxCell id="QU9Vi9RlxVRj50U4WEez-9" value="&lt;div align=&quot;left&quot;&gt;&lt;font style=&quot;font-size: 20px;&quot;&gt;- Ataques sistematizados&lt;br&gt;&lt;/font&gt;&lt;/div&gt;" style="text;strokeColor=none;align=left;fillColor=none;html=1;verticalAlign=middle;whiteSpace=wrap;rounded=0;fontSize=12;fontFamily=Helvetica;fontColor=default;movable=1;resizable=1;rotatable=1;deletable=1;editable=1;locked=0;connectable=1;container=0;" vertex="1" parent="QU9Vi9RlxVRj50U4WEez-1">
          <mxGeometry x="550" y="1105.0420168067228" width="240" height="105.3781512605042" as="geometry" />
        </mxCell>
        <mxCell id="QU9Vi9RlxVRj50U4WEez-10" value="&lt;div align=&quot;left&quot;&gt;&lt;font style=&quot;font-size: 20px;&quot;&gt;- Abuso de recursos e influencias (recursos mediáticos, sociales, militares, paramilitares, económicos y legales).&lt;br&gt;&lt;/font&gt;&lt;/div&gt;" style="text;strokeColor=none;align=left;fillColor=none;html=1;verticalAlign=middle;whiteSpace=wrap;rounded=0;fontSize=12;fontFamily=Helvetica;fontColor=default;movable=1;resizable=1;rotatable=1;deletable=1;editable=1;locked=0;connectable=1;container=0;" vertex="1" parent="QU9Vi9RlxVRj50U4WEez-1">
          <mxGeometry x="170" y="970.924369747899" width="230" height="105.3781512605042" as="geometry" />
        </mxCell>
        <mxCell id="QU9Vi9RlxVRj50U4WEez-11" value="&lt;font style=&quot;font-size: 27px;&quot;&gt;Violencia&lt;/font&gt;" style="swimlane;whiteSpace=wrap;html=1;strokeColor=#d79b00;fontFamily=Helvetica;fontSize=12;fillColor=#ffe6cc;startSize=40;swimlaneFillColor=none;strokeWidth=3;movable=1;resizable=1;rotatable=1;deletable=1;editable=1;locked=0;connectable=1;container=0;" vertex="1" parent="QU9Vi9RlxVRj50U4WEez-1">
          <mxGeometry x="40" y="544.6221008403361" width="240" height="210.7563025210084" as="geometry" />
        </mxCell>
        <mxCell id="QU9Vi9RlxVRj50U4WEez-12" value="&lt;div align=&quot;left&quot;&gt;&lt;font style=&quot;font-size: 20px;&quot;&gt;- Manipulación&lt;/font&gt;&lt;/div&gt;&lt;div align=&quot;left&quot;&gt;&lt;font style=&quot;font-size: 20px;&quot;&gt;- Provocación&lt;br&gt;&lt;/font&gt;&lt;/div&gt;" style="text;strokeColor=none;align=left;fillColor=none;html=1;verticalAlign=middle;whiteSpace=wrap;rounded=0;fontSize=12;fontFamily=Helvetica;fontColor=default;movable=1;resizable=1;rotatable=1;deletable=1;editable=1;locked=0;connectable=1;container=0;" vertex="1" parent="QU9Vi9RlxVRj50U4WEez-1">
          <mxGeometry x="1430" y="396.13445378151255" width="160" height="105.3781512605042" as="geometry" />
        </mxCell>
        <mxCell id="QU9Vi9RlxVRj50U4WEez-13" value="" style="triangle;whiteSpace=wrap;html=1;rotation=-270;fillColor=#a0522d;fontColor=#ffffff;strokeColor=#6D1F00;movable=1;resizable=1;rotatable=1;deletable=1;editable=1;locked=0;connectable=1;container=0;" vertex="1" parent="QU9Vi9RlxVRj50U4WEez-1">
          <mxGeometry x="671.2291082118796" y="299.1421929788752" width="274.8987663470857" height="18.914483965398286" as="geometry" />
        </mxCell>
        <mxCell id="QU9Vi9RlxVRj50U4WEez-14" value="" style="triangle;whiteSpace=wrap;html=1;rotation=-270;fillColor=#a20025;fontColor=#ffffff;strokeColor=#6F0000;movable=1;resizable=1;rotatable=1;deletable=1;editable=1;locked=0;connectable=1;container=0;" vertex="1" parent="QU9Vi9RlxVRj50U4WEez-1">
          <mxGeometry x="717.7466888570409" y="301.46345994720093" width="274.8987663470857" height="18.914483965398286" as="geometry" />
        </mxCell>
        <mxCell id="QU9Vi9RlxVRj50U4WEez-15" value="" style="triangle;whiteSpace=wrap;html=1;rotation=-270;fillColor=#0050ef;fontColor=#ffffff;strokeColor=#001DBC;movable=1;resizable=1;rotatable=1;deletable=1;editable=1;locked=0;connectable=1;container=0;" vertex="1" parent="QU9Vi9RlxVRj50U4WEez-1">
          <mxGeometry x="694.065011437686" y="299.1421929788752" width="274.8987663470857" height="18.914483965398286" as="geometry" />
        </mxCell>
        <mxCell id="QU9Vi9RlxVRj50U4WEez-16" value="&lt;ul style=&quot;font-size: 28px;&quot;&gt;&lt;li&gt;&lt;b&gt;&lt;font style=&quot;font-size: 28px;&quot; color=&quot;#974b00&quot;&gt;Política&lt;/font&gt;&lt;/b&gt;&lt;/li&gt;&lt;li&gt;&lt;b&gt;&lt;font style=&quot;font-size: 28px;&quot; color=&quot;#008000&quot;&gt;Militar&lt;/font&gt;&lt;/b&gt;&lt;/li&gt;&lt;li&gt;&lt;font color=&quot;#a6043d&quot;&gt;&lt;b&gt;&lt;font style=&quot;font-size: 28px;&quot;&gt;Social&lt;/font&gt;&lt;/b&gt;&lt;/font&gt;&lt;/li&gt;&lt;li&gt;&lt;b&gt;&lt;font style=&quot;font-size: 28px;&quot; color=&quot;#0f0fff&quot;&gt;Psicológica&lt;br&gt;&lt;/font&gt;&lt;/b&gt;&lt;/li&gt;&lt;/ul&gt;" style="text;strokeColor=none;align=left;fillColor=none;html=1;verticalAlign=middle;whiteSpace=wrap;rounded=0;fontSize=12;fontFamily=Helvetica;fontColor=default;movable=1;resizable=1;rotatable=1;deletable=1;editable=1;locked=0;connectable=1;container=0;" vertex="1" parent="QU9Vi9RlxVRj50U4WEez-1">
          <mxGeometry x="42" y="603.0590756302521" width="230" height="114.95798319327731" as="geometry" />
        </mxCell>
        <mxCell id="QU9Vi9RlxVRj50U4WEez-17" value="" style="triangle;whiteSpace=wrap;html=1;rotation=-525;fillColor=#a0522d;fontColor=#ffffff;strokeColor=#6D1F00;movable=1;resizable=1;rotatable=1;deletable=1;editable=1;locked=0;connectable=1;container=0;" vertex="1" parent="QU9Vi9RlxVRj50U4WEez-1">
          <mxGeometry x="1122" y="700.7731092436975" width="302.8719883850744" height="25.21931195386438" as="geometry" />
        </mxCell>
        <mxCell id="QU9Vi9RlxVRj50U4WEez-18" value="" style="triangle;whiteSpace=wrap;html=1;rotation=-525;fillColor=#0050ef;fontColor=#ffffff;strokeColor=#001DBC;movable=1;resizable=1;rotatable=1;deletable=1;editable=1;locked=0;connectable=1;container=0;" vertex="1" parent="QU9Vi9RlxVRj50U4WEez-1">
          <mxGeometry x="1116" y="723.7647058823529" width="302.8719883850744" height="25.21931195386438" as="geometry" />
        </mxCell>
        <mxCell id="QU9Vi9RlxVRj50U4WEez-19" value="" style="triangle;whiteSpace=wrap;html=1;rotation=45;fillColor=#a0522d;fontColor=#ffffff;strokeColor=#6D1F00;movable=1;resizable=1;rotatable=1;deletable=1;editable=1;locked=0;connectable=1;container=0;" vertex="1" parent="QU9Vi9RlxVRj50U4WEez-1">
          <mxGeometry x="364.7727232480098" y="415.1761105964181" width="302.8719883850744" height="25.21931195386438" as="geometry" />
        </mxCell>
        <mxCell id="QU9Vi9RlxVRj50U4WEez-20" value="" style="triangle;whiteSpace=wrap;html=1;rotation=45;fillColor=#a20025;fontColor=#ffffff;strokeColor=#6F0000;movable=1;resizable=1;rotatable=1;deletable=1;editable=1;locked=0;connectable=1;container=0;" vertex="1" parent="QU9Vi9RlxVRj50U4WEez-1">
          <mxGeometry x="401.9160336206709" y="381.3927054338402" width="302.8719883850744" height="25.21931195386438" as="geometry" />
        </mxCell>
        <mxCell id="QU9Vi9RlxVRj50U4WEez-21" value="" style="triangle;whiteSpace=wrap;html=1;rotation=45;fillColor=#0050ef;fontColor=#ffffff;strokeColor=#001DBC;movable=1;resizable=1;rotatable=1;deletable=1;editable=1;locked=0;connectable=1;container=0;" vertex="1" parent="QU9Vi9RlxVRj50U4WEez-1">
          <mxGeometry x="381.98547683534053" y="398.28440801512915" width="302.8719883850744" height="25.21931195386438" as="geometry" />
        </mxCell>
        <mxCell id="QU9Vi9RlxVRj50U4WEez-22" value="" style="triangle;whiteSpace=wrap;html=1;rotation=45;fillColor=#008a00;fontColor=#ffffff;strokeColor=#005700;movable=1;resizable=1;rotatable=1;deletable=1;editable=1;locked=0;connectable=1;container=0;" vertex="1" parent="QU9Vi9RlxVRj50U4WEez-1">
          <mxGeometry x="420.03472160733486" y="364.50100285255127" width="302.8719883850744" height="25.21931195386438" as="geometry" />
        </mxCell>
        <mxCell id="QU9Vi9RlxVRj50U4WEez-23" value="" style="triangle;whiteSpace=wrap;html=1;rotation=-75;fillColor=#008a00;fontColor=#ffffff;strokeColor=#005700;movable=1;resizable=1;rotatable=1;deletable=1;editable=1;locked=0;connectable=1;container=0;" vertex="1" parent="QU9Vi9RlxVRj50U4WEez-1">
          <mxGeometry x="599" y="965.1764705882354" width="302.8719883850744" height="25.21931195386438" as="geometry" />
        </mxCell>
        <mxCell id="QU9Vi9RlxVRj50U4WEez-24" value="" style="triangle;whiteSpace=wrap;html=1;rotation=-45;fillColor=#a0522d;fontColor=#ffffff;strokeColor=#6D1F00;movable=1;resizable=1;rotatable=1;deletable=1;editable=1;locked=0;connectable=1;container=0;" vertex="1" parent="QU9Vi9RlxVRj50U4WEez-1">
          <mxGeometry x="360" y="851.8244537815127" width="302.8719883850744" height="25.21931195386438" as="geometry" />
        </mxCell>
        <mxCell id="QU9Vi9RlxVRj50U4WEez-25" value="" style="triangle;whiteSpace=wrap;html=1;rotation=-45;fillColor=#a20025;fontColor=#ffffff;strokeColor=#6F0000;movable=1;resizable=1;rotatable=1;deletable=1;editable=1;locked=0;connectable=1;container=0;" vertex="1" parent="QU9Vi9RlxVRj50U4WEez-1">
          <mxGeometry x="340" y="832.9747899159665" width="302.8719883850744" height="25.21931195386438" as="geometry" />
        </mxCell>
        <mxCell id="QU9Vi9RlxVRj50U4WEez-26" value="" style="triangle;whiteSpace=wrap;html=1;rotation=-135;fillColor=#a0522d;fontColor=#ffffff;strokeColor=#6D1F00;movable=1;resizable=1;rotatable=1;deletable=1;editable=1;locked=0;connectable=1;container=0;" vertex="1" parent="QU9Vi9RlxVRj50U4WEez-1">
          <mxGeometry x="1020.45" y="859.7983193277311" width="302.8719883850744" height="25.21931195386438" as="geometry" />
        </mxCell>
        <mxCell id="QU9Vi9RlxVRj50U4WEez-27" value="" style="triangle;whiteSpace=wrap;html=1;rotation=-135;fillColor=#008040;fontColor=#ffffff;strokeColor=#001DBC;movable=1;resizable=1;rotatable=1;deletable=1;editable=1;locked=0;connectable=1;container=0;" vertex="1" parent="QU9Vi9RlxVRj50U4WEez-1">
          <mxGeometry x="1003.45" y="877.0420168067226" width="302.8719883850744" height="25.21931195386438" as="geometry" />
        </mxCell>
        <mxCell id="QU9Vi9RlxVRj50U4WEez-28" value="" style="triangle;whiteSpace=wrap;html=1;rotation=-105;fillColor=#a20025;fontColor=#ffffff;strokeColor=#6F0000;movable=1;resizable=1;rotatable=1;deletable=1;editable=1;locked=0;connectable=1;container=0;" vertex="1" parent="QU9Vi9RlxVRj50U4WEez-1">
          <mxGeometry x="804.45" y="969.0084033613446" width="302.8719883850744" height="25.21931195386438" as="geometry" />
        </mxCell>
        <mxCell id="QU9Vi9RlxVRj50U4WEez-29" value="" style="triangle;whiteSpace=wrap;html=1;rotation=-105;fillColor=#0050ef;fontColor=#ffffff;strokeColor=#001DBC;movable=1;resizable=1;rotatable=1;deletable=1;editable=1;locked=0;connectable=1;container=0;" vertex="1" parent="QU9Vi9RlxVRj50U4WEez-1">
          <mxGeometry x="830.45" y="964.218487394958" width="302.8719883850744" height="25.21931195386438" as="geometry" />
        </mxCell>
        <mxCell id="QU9Vi9RlxVRj50U4WEez-30" value="" style="triangle;whiteSpace=wrap;html=1;rotation=-200;fillColor=#a0522d;fontColor=#ffffff;strokeColor=#6D1F00;movable=1;resizable=1;rotatable=1;deletable=1;editable=1;locked=0;connectable=1;container=0;" vertex="1" parent="QU9Vi9RlxVRj50U4WEez-1">
          <mxGeometry x="1107.13" y="482.3529411764706" width="302.8719883850744" height="25.21931195386438" as="geometry" />
        </mxCell>
        <mxCell id="QU9Vi9RlxVRj50U4WEez-31" value="" style="triangle;whiteSpace=wrap;html=1;rotation=-200;fillColor=#0050ef;fontColor=#ffffff;strokeColor=#001DBC;movable=1;resizable=1;rotatable=1;deletable=1;editable=1;locked=0;connectable=1;container=0;" vertex="1" parent="QU9Vi9RlxVRj50U4WEez-1">
          <mxGeometry x="1117.13" y="506.30252100840335" width="302.8719883850744" height="25.21931195386438" as="geometry" />
        </mxCell>
        <mxCell id="QU9Vi9RlxVRj50U4WEez-32" value="" style="triangle;whiteSpace=wrap;html=1;rotation=-200;fillColor=#008a00;fontColor=#ffffff;strokeColor=#005700;movable=1;resizable=1;rotatable=1;deletable=1;editable=1;locked=0;connectable=1;container=0;" vertex="1" parent="QU9Vi9RlxVRj50U4WEez-1">
          <mxGeometry x="1120.8300000000002" y="529.8880672268907" width="312.87" height="25.223697478991596" as="geometry" />
        </mxCell>
        <mxCell id="QU9Vi9RlxVRj50U4WEez-33" value="" style="triangle;whiteSpace=wrap;html=1;rotation=-230;fillColor=#a0522d;fontColor=#ffffff;strokeColor=#6D1F00;movable=1;resizable=1;rotatable=1;deletable=1;editable=1;locked=0;connectable=1;container=0;" vertex="1" parent="QU9Vi9RlxVRj50U4WEez-1">
          <mxGeometry x="980.9971335313687" y="363.56671383093874" width="302.8719883850744" height="25.21931195386438" as="geometry" />
        </mxCell>
        <mxCell id="QU9Vi9RlxVRj50U4WEez-34" value="" style="triangle;whiteSpace=wrap;html=1;rotation=-230;fillColor=#a20025;fontColor=#ffffff;strokeColor=#6F0000;movable=1;resizable=1;rotatable=1;deletable=1;editable=1;locked=0;connectable=1;container=0;" vertex="1" parent="QU9Vi9RlxVRj50U4WEez-1">
          <mxGeometry x="943.9971335313687" y="333.86923483934214" width="302.8719883850744" height="25.21931195386438" as="geometry" />
        </mxCell>
        <mxCell id="QU9Vi9RlxVRj50U4WEez-35" value="" style="triangle;whiteSpace=wrap;html=1;rotation=-230;fillColor=#008a00;fontColor=#ffffff;strokeColor=#005700;movable=1;resizable=1;rotatable=1;deletable=1;editable=1;locked=0;connectable=1;container=0;" vertex="1" parent="QU9Vi9RlxVRj50U4WEez-1">
          <mxGeometry x="962.9971335313687" y="349.1969659317791" width="302.8719883850744" height="25.21931195386438" as="geometry" />
        </mxCell>
        <mxCell id="QU9Vi9RlxVRj50U4WEez-36" value="" style="group" vertex="1" connectable="0" parent="QU9Vi9RlxVRj50U4WEez-1">
          <mxGeometry x="577" y="434.453781512605" width="560" height="402.3529411764706" as="geometry" />
        </mxCell>
        <mxCell id="QU9Vi9RlxVRj50U4WEez-37" value="" style="ellipse;whiteSpace=wrap;html=1;fillColor=#f8cecc;strokeColor=#b85450;gradientColor=#fb5e6d;movable=1;resizable=1;rotatable=1;deletable=1;editable=1;locked=0;connectable=1;container=0;" vertex="1" parent="QU9Vi9RlxVRj50U4WEez-36">
          <mxGeometry width="560" height="402.3529411764706" as="geometry" />
        </mxCell>
        <mxCell id="QU9Vi9RlxVRj50U4WEez-38" value="" style="ellipse;whiteSpace=wrap;rounded=0;shadow=0;strokeWidth=1;fillColor=#ffd964;fontSize=24;align=center;strokeColor=#d6b656;opacity=50;fillStyle=auto;html=1;gradientColor=#888f01;gradientDirection=north;movable=1;resizable=1;rotatable=1;deletable=1;editable=1;locked=0;connectable=1;container=0;" vertex="1" parent="QU9Vi9RlxVRj50U4WEez-36">
          <mxGeometry x="155" y="119.74789915966392" width="250" height="162.8571428571428" as="geometry" />
        </mxCell>
        <mxCell id="QU9Vi9RlxVRj50U4WEez-39" value="&lt;font style=&quot;font-size: 22px;&quot;&gt;VIOLENCIA&lt;/font&gt;" style="text;strokeColor=none;align=center;fillColor=none;html=1;verticalAlign=middle;whiteSpace=wrap;rounded=0;fontSize=35;fontStyle=1;movable=1;resizable=1;rotatable=1;deletable=1;editable=1;locked=0;connectable=1;container=0;" vertex="1" parent="QU9Vi9RlxVRj50U4WEez-36">
          <mxGeometry x="205" y="134.11764705882354" width="150" height="114.95798319327727" as="geometry" />
        </mxCell>
        <mxCell id="QU9Vi9RlxVRj50U4WEez-40" value="&lt;font style=&quot;font-size: 20px;&quot;&gt;Género&lt;/font&gt;" style="text;strokeColor=none;align=center;fillColor=none;html=1;verticalAlign=middle;whiteSpace=wrap;rounded=0;fontStyle=1;movable=1;resizable=1;rotatable=1;deletable=1;editable=1;locked=0;connectable=1;container=0;" vertex="1" parent="QU9Vi9RlxVRj50U4WEez-36">
          <mxGeometry x="250" y="47.89915966386559" width="60" height="28.739495798319318" as="geometry" />
        </mxCell>
        <mxCell id="QU9Vi9RlxVRj50U4WEez-41" value="&lt;font style=&quot;font-size: 20px;&quot;&gt;Racialidad&lt;/font&gt;" style="text;strokeColor=none;align=center;fillColor=none;html=1;verticalAlign=middle;whiteSpace=wrap;rounded=0;fontStyle=1;movable=1;resizable=1;rotatable=1;deletable=1;editable=1;locked=0;connectable=1;container=0;" vertex="1" parent="QU9Vi9RlxVRj50U4WEez-36">
          <mxGeometry x="250" y="325.7142857142858" width="60" height="28.739495798319318" as="geometry" />
        </mxCell>
        <mxCell id="QU9Vi9RlxVRj50U4WEez-42" value="&lt;font style=&quot;font-size: 20px;&quot;&gt;Neuro-desarrollo&lt;/font&gt;" style="text;strokeColor=none;align=center;fillColor=none;html=1;verticalAlign=middle;whiteSpace=wrap;rounded=0;fontStyle=1;movable=1;resizable=1;rotatable=1;deletable=1;editable=1;locked=0;connectable=1;container=0;" vertex="1" parent="QU9Vi9RlxVRj50U4WEez-36">
          <mxGeometry x="463" y="182.01680672268913" width="60" height="28.739495798319318" as="geometry" />
        </mxCell>
        <mxCell id="QU9Vi9RlxVRj50U4WEez-43" value="&lt;font style=&quot;font-size: 20px;&quot;&gt;Clase&lt;br&gt;socio-económica&lt;br&gt;&lt;/font&gt;" style="text;strokeColor=none;align=center;fillColor=none;html=1;verticalAlign=middle;whiteSpace=wrap;rounded=0;fontStyle=1;movable=1;resizable=1;rotatable=1;deletable=1;editable=1;locked=0;connectable=1;container=0;" vertex="1" parent="QU9Vi9RlxVRj50U4WEez-36">
          <mxGeometry x="63" y="162.8571428571429" width="60" height="67.05882352941175" as="geometry" />
        </mxCell>
      </root>
    </mxGraphModel>
  </diagram>
</mxfile>
